<svg xmlns="http://www.w3.org/2000/svg" viewBox="0 0 32 32" aria-hidden="true" role="presentation" focusable="false" style="display: block; height: 24px; width: 24px; fill: currentcolor;"><path d="M32,25H30a8.007,8.007,0,0,0-7-7.93054V14.81573a3.00011,3.00011,0,1,0-2-.00006v2.25379a7.958,7.958,0,0,0-3.50024,1.33246A9.95129,9.95129,0,0,1,20,25H18a7.95162,7.95162,0,0,0-2-5.27905,8.057,8.057,0,0,0-1.49969-1.319A7.958,7.958,0,0,0,11,17.06946V14.81573a3.00011,3.00011,0,1,0-2-.00006v2.25379A8.007,8.007,0,0,0,2,25H0a10.01615,10.01615,0,0,1,6.54834-9.38574,5,5,0,1,1,6.90332,0A9.98322,9.98322,0,0,1,16,17.00879a9.98325,9.98325,0,0,1,2.54785-1.39453,5,5,0,1,1,6.9043,0A10.01571,10.01571,0,0,1,32,25Z"/></svg>