<svg xmlns="http://www.w3.org/2000/svg" viewBox="0 0 24 24" role="presentation" aria-hidden="true" focusable="false" style="height:32px;width:32px;display:block;fill:#60B6B5"><path d="m8.7818 3.176c.097.258.385.389.644.292.258-.097.389-.385.293-.644l-.75-2c-.098-.258-.386-.389-.645-.292-.258.097-.389.385-.292.644zm6.792.289c.259.097.547-.034.645-.292l.75-1.997c.097-.258-.034-.547-.293-.644-.258-.097-.547.034-.644.292l-.75 1.997c-.097.258.034.546.292.644zm-11.85 2.588-1.5-.75c-.247-.124-.547-.023-.671.224s-.023.547.224.67l1.5.75c.247.124.547.024.671-.223.123-.247.023-.548-.224-.671zm19.721-.522c-.123-.247-.423-.348-.67-.225l-1.497.743c-.247.123-.349.423-.225.67.122.248.422.349.67.226l1.497-.744c.247-.123.348-.422.225-.67zm-5.32 16.432c0 .254-.206.46-.46.46h-10.005c-.55 0-.997-.444-1-.995l-.042-7.684c-.002-.246.136-.472.355-.586.323-.166.718-.04.885.283.858 1.663 2.095 3.205 3.713 4.626 1.768 1.553 3.845 2.706 6.232 3.458.192.059.322.237.322.438z"/><path fill="#484848" d="m12.0001 14.0002h-6.5c-.276 0-.5-.224-.5-.5v-1c0-.276.224-.5.5-.5h3.5 3zm7.5-3h-1.889c.611-.417 1.055-.836 1.356-1.26.366-.515.463-.871.512-1.448.001-.021.001-.021.003-.039.247-2.526-2.483-4.244-4.648-2.595-1.181.9-2.029 2.581-2.326 4.255-.049.272.133.532.405.58s.531-.133.579-.405c.257-1.448.993-2.907 1.947-3.634 1.444-1.1 3.213.014 3.048 1.702-.003.026-.003.026-.005.052-.08.949-.566 1.633-2.71 2.701-.048.024-.091.055-.127.091h-6.292c-.037-.036-.08-.067-.128-.091-2.143-1.068-2.629-1.752-2.709-2.701-.003-.026-.003-.026-.005-.052-.165-1.688 1.603-2.802 3.047-1.702 1.063.81 1.726 1.892 1.946 3.133.049.272.308.454.58.405.272-.048.453-.307.405-.579-.264-1.49-1.063-2.793-2.325-3.755-2.165-1.649-4.895.069-4.648 2.595.001.018.001.018.003.039.049.577.146.933.511 1.448.302.424.746.843 1.356 1.26h-1.886c-.829 0-1.5.671-1.5 1.5v1c0 .653.417 1.209 1 1.415v7.585c0 .828.671 1.5 1.5 1.5h.5c.276 0 .5-.224.5-.5s-.224-.5-.5-.5h-.5c-.276 0-.5-.224-.5-.5v-7.5h6v6c0 .276.224.5.5.5s.5-.224.5-.5v-6h6v7.5c0 .276-.224.5-.5.5h-9.49c-.276 0-.5.224-.5.5s.224.5.5.5h9.49c.829 0 1.5-.672 1.5-1.5v-7.5c.276 0 .5-.224.5-.5s-.224-.5-.5-.5h-7v-2h6.5c.276 0 .5.224.5.5v.5c0 .667 1 .667 1 0v-.5c0-.829-.671-1.5-1.5-1.5z"/></svg>