<svg viewBox="0 0 32 32" xmlns="http://www.w3.org/2000/svg" aria-hidden="true"  focusable="false" style="display: block; height: 24px; width: 24px; fill: currentcolor;"><path d="M25.5 1l-.05.034a3.001 3.001 0 0 1 2.545 2.79L28 4v1h2v2h-2v22a2 2 0 0 1-1.85 1.995L26 31H10a2 2 0 0 1-1.995-1.85L8 29v-2H6a2 2 0 0 1-1.995-1.85L4 25V7H2V5h2V4a3 3 0 0 1 2.824-2.995L7 1zm.5 6h-2v18c0 .05-.002.1-.005.15L24 25a2.011 2.011 0 0 1-.374 1.165A2.007 2.007 0 0 1 22 27H10v2h16zM6 25h16v-2H6zm0-4h16v-2H6zM22 3H7a1 1 0 0 0-1 1v13h16zm3 0a1 1 0 0 0-.993.883L24 4v1h2V4a1 1 0 0 0-.883-.993z"/></svg>