<svg viewBox="0 0 32 32" xmlns="http://www.w3.org/2000/svg" aria-hidden="true"  focusable="false" style="display: block; height: 24px; width: 24px; fill: currentcolor;"><path d="M29 3a1 1 0 0 1 .993.883L30 4v12.5C30 23.965 23.723 30 16 30 8.51 30 2.361 24.318 2.015 17.125l-.011-.309L2 16.5V4a1 1 0 0 1 .883-.993L3 3h26zm-1 2H4l-.001 3H10v2H3.999v5.062a8 8 0 0 1 7.77 12.203A12.44 12.44 0 0 0 16 28c1.49 0 2.916-.26 4.232-.735A8 8 0 0 1 28 15.062V10h-6V8h6V5zM5 17a6.05 6.05 0 0 0-.985.08c.207 3.986 2.53 7.436 5.914 9.342A6 6 0 0 0 5 17zm22 0a6 6 0 0 0-4.93 9.422c3.387-1.907 5.708-5.36 5.915-9.34l-.066-.012A6.055 6.055 0 0 0 27 17z"/></svg>