<svg viewBox="0 0 32 32" xmlns="http://www.w3.org/2000/svg" aria-hidden="true"  focusable="false" style="display: block; height: 24px; width: 24px; fill: currentcolor;"><path d="M20.875 1.515l.053.114 1.857 4.642a3 3 0 0 1 .206.886l.009.228V30a1 1 0 0 1-.883.993L22 31h-4a1 1 0 0 1-.993-.883L17 30V7.385a3 3 0 0 1 .138-.899l.077-.215 1.857-4.642c.319-.799 1.41-.837 1.803-.114zm8 0l.053.114 1.857 4.642a3 3 0 0 1 .206.886l.009.228V30a1 1 0 0 1-.883.993L30 31h-4a1 1 0 0 1-.993-.883L25 30V7.385a3 3 0 0 1 .138-.899l.077-.215 1.857-4.642c.319-.799 1.41-.837 1.803-.114zM9.658 3.218l1.931.518-2.717 10.14L13.03 24.71l1.599-.638.742 1.856-1.624.65 1.204 3.134-1.867.716-1.194-3.108-1.519.608-.742-1.856 1.544-.619-3.182-8.29-2.355 8.788 1.932.519-.517 1.932-1.933-.519-.776 2.899-1.931-.518.775-2.898-1.93-.517.517-1.932 1.931.517 3.068-11.448L3.05 4.288l1.867-.716L7.652 10.7l2.006-7.482zM21 21h-2v8h2v-8zm8 0h-2v8h2v-8zm-8-5h-2v3h2v-3zm8 0h-2v3h2v-3zM20 4.692l-.928 2.322a1 1 0 0 0-.064.245L19 7.385V14h2V7.385l-.008-.126-.024-.125-.04-.12L20 4.692zm8 0l-.928 2.322a1 1 0 0 0-.064.245L27 7.385V14h2V7.385a1 1 0 0 0-.008-.126l-.024-.125-.04-.12L28 4.692z"/></svg>