<svg viewBox="0 0 32 32" xmlns="http://www.w3.org/2000/svg" aria-hidden="true"  focusable="false" style="display: block; height: 24px; width: 24px; fill: currentcolor;"><path d="M28 3a1 1 0 0 1 .993.883L29 4v24a1 1 0 0 1-.883.993L28 29H14a1 1 0 0 1-.883.993L13 30H5a3 3 0 0 1-2.995-2.824L2 27v-8a1 1 0 0 1 .883-.993L3 18V4a1 1 0 0 1 .883-.993L4 3h24zM7 20H4v7a1 1 0 0 0 .77.974l.113.02L5 28h7v-3H8a1 1 0 0 1-.974-.77l-.02-.113L7 24v-4zM27 5H5v13h3a1 1 0 0 1 .993.883L9 19v4h4a1 1 0 0 1 .974.77l.02.113L14 24v3h13V5z"/></svg>